<svg xmlns="http://www.w3.org/2000/svg" fill="none" viewBox="0 0 164 40"><defs/><path fill="#121212" fill-rule="evenodd" d="M55.583 14.297l-1.574 8.97c-.038.226-.075.49-.075.715 0 1.357 1.087 2.337 2.548 2.337 1.35 0 2.586-.829 2.849-2.412l1.686-9.61h6.446l-2.998 17.072C63.49 36.985 59.443 40 54.42 40c-3.298 0-6.97-1.319-9.444-4.221l3.748-4.334.736.62c1.57 1.282 3.011 2.131 4.96 2.131 1.874 0 3.223-.792 3.636-3.015l.112-.716c-1.2.83-2.66 1.32-4.347 1.32-3.935 0-6.484-2.752-6.484-6.295 0-.603.075-1.394.188-1.997l1.611-9.196h6.446zm-33 0c5.283 0 8.469 3.769 8.469 8.103 0 1.394-.337 2.826-.75 3.806H18.498c.6 1.47 1.986 2.11 4.01 2.11 1.798 0 3.41-.527 5.021-1.431l2.061 4.296c-2.36 1.658-4.871 2.488-7.645 2.488-5.958 0-9.93-3.845-9.93-9.083 0-5.729 4.721-10.29 10.567-10.29zM9.685 8L8.47 14.749l-.938 5.352-.936 5.163-.064.536a3.059 3.059 0 00-.011.256c0 1.658 1.349 2.072 3.71 2.072h1.499l-.937 5.352c-.75.113-1.424.189-2.399.189C4.834 33.669 0 32.65 0 27.337c0-.679.075-1.32.187-1.997l.937-5.24L3.24 8h6.446zm33.36 0l-1.133 6.291h4.939l-.886 5.33h-4.988l-1.021 5.643c-.038.301-.075.528-.075.792 0 1.658 1.35 2.072 3.71 2.072h1.5l-.938 5.352a14.75 14.75 0 01-2.398.189c-3.56 0-8.395-1.018-8.395-6.332 0-.679.075-1.32.188-1.997l1.02-5.72h-2.892l.886-5.329h2.94L36.598 8h6.446zm-20.75 11.31c-1.613 0-3 1.017-3.599 2.75h6.521c-.038-1.808-1.387-2.75-2.923-2.75z" clip-rule="evenodd"/><path fill="#FCD31B" fill-rule="evenodd" d="M138.767 14.297c4.91 0 8.02 4.063 8.02 8.69 0 4.516-2.998 10.686-10.044 10.686-2.473 0-4.197-.752-5.283-2.07l-1.424 8.353h-6.447l4.423-25.208h5.883l-.299 1.769c1.236-1.468 3.035-2.22 5.171-2.22zm17.289.033c3.148 0 5.659 1.129 7.383 3.236l-3.598 3.611c-1.161-1.241-2.548-1.843-3.635-1.843-.749 0-1.087.3-1.087.752 0 .49.375.715 1.012.978l1.687.64c3.035 1.204 5.059 2.822 5.059 5.53 0 2.71-1.986 6.435-7.645 6.435-3.635 0-6.783-1.543-8.432-4.252l3.785-3.5c1.386 1.619 2.773 2.748 4.684 2.748.825 0 1.574-.226 1.574-.828 0-.452-.375-.715-1.012-.978l-1.761-.678c-2.998-1.203-5.022-2.821-5.022-5.869 0-3.725 2.961-5.982 7.008-5.982zM93.582 8.116L92.13 16.21c1.124-.865 2.548-1.43 4.385-1.43 3.86 0 6.483 2.559 6.483 6.359 0 .542-.048 1.083-.144 1.702l-1.88 10.827H94.53l1.724-10.046c.075-.301.112-.64.112-.94 0-1.468-1.05-2.371-2.548-2.371-1.387 0-2.549.79-2.849 2.558L89.096 33.67H82.65l4.486-25.553h6.446zM75.39 14.33c3.147 0 5.658 1.129 7.382 3.236l-3.598 3.611c-1.161-1.241-2.548-1.843-3.635-1.843-.75 0-1.087.3-1.087.752 0 .49.375.715 1.012.978l1.687.64c3.035 1.204 5.06 2.822 5.06 5.53 0 2.71-1.987 6.435-7.646 6.435-3.635 0-6.783-1.543-8.432-4.252l3.785-3.5c1.386 1.619 2.773 2.748 4.685 2.748.824 0 1.573-.226 1.573-.828 0-.452-.374-.715-1.011-.978l-1.762-.678c-2.998-1.203-5.022-2.821-5.022-5.869 0-3.725 2.961-5.982 7.008-5.982zm61.353 5.761c-2.21 0-3.934 1.693-3.972 4.026-.037 2.257 1.462 3.762 3.485 3.762 2.211 0 3.898-1.843 3.935-4.176.038-2.182-1.424-3.612-3.448-3.612z" clip-rule="evenodd"/><path fill="#FCD31B" fill-rule="evenodd" d="M115.071 12C121.836 12 127 16.996 127 23.533 127 30.677 120.876 36 113.837 36 107.027 36 102 31.004 102 24.514 102 17.37 108.079 12 115.071 12z" clip-rule="evenodd"/><path fill="#121212" fill-rule="evenodd" d="M111.113 18c-1.19 0-2.092 1.165-2.113 2.67-.02 1.408.759 2.33 1.846 2.33 1.19 0 2.133-1.092 2.154-2.597.02-1.456-.8-2.403-1.887-2.403zM118.113 18c-1.19 0-2.092 1.165-2.113 2.67-.02 1.408.759 2.33 1.846 2.33 1.19 0 2.133-1.092 2.154-2.597.02-1.456-.8-2.403-1.887-2.403z" clip-rule="evenodd"/><path fill="#FCD31B" d="M116.153 9.637l2.852-2.505 2.593-2.275 2.26-1.987 2.13-1.87-.132 3.507-.142 3.787-.167 4.48-.279 8.257c-.01.292.001-.31.037-1.806a11.957 11.957 0 00-13.042-6.174l3.89-3.414z"/><path fill="#F44336" d="M113.205 12.226l2.973-2.612c1.571.427 3.48 1.52 5.267 3.124 2.057 1.848 3.458 3.93 3.894 5.568l-.024.62c-1.695-2.822-7.076-7.085-12.11-6.7zM125.988 1l-.131 3.498a17.905 17.905 0 00-1.993-1.632L125.988 1zm-4.38 3.847a17.096 17.096 0 012.655 1.968c.529.474 1.015.965 1.452 1.46l-.168 4.467a16.532 16.532 0 00-2.665-3.023c-1.28-1.15-2.623-2.035-3.858-2.603l2.585-2.27h-.001z"/><path fill="#121212" d="M118.616 28.7c-.275.34-.61.64-1.006.904-.389.273-.84.481-1.352.625a5.972 5.972 0 01-1.713.2c-.632-.003-1.32-.104-2.066-.304-.745-.2-1.392-.456-1.94-.77a5.974 5.974 0 01-1.384-1.03 4.41 4.41 0 01-.859-1.217 4.47 4.47 0 01-.419-1.285l1.424-.5c.102.308.241.608.417.902.182.303.414.585.696.844.29.262.638.5 1.046.715.414.225.912.416 1.493.572a6.782 6.782 0 001.567.248c.468.02.89-.012 1.263-.096.382-.082.724-.21 1.025-.384.307-.163.582-.353.824-.569l.984 1.146z"/><path fill="#F44336" d="M106.5 2l2-1 1.5 2-4 1 .5-2zM102.22 9.627l.87 2.06-2.092 1.369L100.256 9l1.964.627z"/><path fill="#F44336" d="M96.22 18.627l.28 4.873-2.244-1V18l1.964.627zM111.355 7.404l.483 2.596-2.493-.612L109.181 7l2.174.404z" opacity=".5"/><path fill="#F44336" d="M122.763 33.67l-.648-1.67 2.911.474.27 1.526-2.533-.33z"/><path fill="#F44336" d="M131 17h2l-1.5 4-2-1.5L131 17z" opacity=".5"/><path fill="#F44336" d="M100.714 31H99l1.286-3L102 29.125 100.714 31zM130 5.5l1.5-2.5.5 3.5-2 2.5V5.5z"/><path fill="#F44336" d="M103 18l2-1.5V21l-1.5-1-.5-2z" opacity=".5"/></svg>
