<svg xmlns="http://www.w3.org/2000/svg" width="45.2" height="45.2" viewBox="0 0 45.2 45.2">
  <g id="Group_62" data-name="Group 62" transform="translate(-577.48 -60)">
    <circle id="Ellipse_26" data-name="Ellipse 26" cx="22.6" cy="22.6" r="22.6" transform="translate(577.48 60)" fill="#1d7bcd"/>
    <path id="Path_25" data-name="Path 25" d="M600.439,75.62a7.726,7.726,0,0,1,4.539,1.449l1.449,1.159V72.047l-.579-.29a12.488,12.488,0,1,0-5.409,23.759,15.144,15.144,0,0,0,5.7-1.449l.58-.29V87.886l-1.449,1.159a9.369,9.369,0,0,1-4.539,1.449,7.466,7.466,0,0,1-7.34-7.34,7.1,7.1,0,0,1,6.761-7.34C600.246,75.62,600.342,75.62,600.439,75.62Z" transform="translate(-0.359 -0.36)" fill="#fff"/>
  </g>
</svg>
